<svg xmlns="http://www.w3.org/2000/svg" viewBox="0 0 280 280" fill="none" shape-rendering="auto" aria-hidden="true"><metadata xmlns:rdf="http://www.w3.org/1999/02/22-rdf-syntax-ns#" xmlns:xsi="http://www.w3.org/2001/XMLSchema-instance" xmlns:dc="http://purl.org/dc/elements/1.1/" xmlns:dcterms="http://purl.org/dc/terms/"><rdf:RDF><rdf:Description><dc:title>Avataaars</dc:title><dc:creator>Pablo Stanley</dc:creator><dc:source xsi:type="dcterms:URI">https://avataaars.com/</dc:source><dcterms:license xsi:type="dcterms:URI">https://avataaars.com/</dcterms:license><dc:rights>Remix of “Avataaars” (https://avataaars.com/) by “Pablo Stanley”, licensed under “Free for personal and commercial use” (https://avataaars.com/)</dc:rights></rdf:Description></rdf:RDF></metadata><defs><g id="clothes-shirtVNeck-99f5743f"><path d="M60.68 15.24A72 72 0 0 0 0 86.36v8.95h200v-8.95a72 72 0 0 0-60.68-71.12 24 24 0 0 1-7.56 13.6l-29.08 26.23a4 4 0 0 1-5.36 0L68.24 28.84a24 24 0 0 1-7.56-13.6" fill="#3c4f5c"/></g><g id="mouth-concerned-99f5743f"><path fill-rule="evenodd" clip-rule="evenodd" d="M27.12 23.87a19 19 0 0 1 37.77.09c.08.77-.77 2.04-1.85 2.04H29.1c-1.1 0-2.1-1.18-1.98-2.13" fill="black" fill-opacity=".7"/><path d="M61.59 26H30.4A11 11 0 0 1 46 19.2 11 11 0 0 1 61.6 26" fill="#FF4F6D"/><path d="M58.57 11.75A5 5 0 0 1 57 12H36q-1.22-.02-2.24-.53A19 19 0 0 1 46 7c4.82 0 9.22 1.8 12.57 4.75" fill="white"/></g><g id="nose-default-99f5743f"><path fill-rule="evenodd" clip-rule="evenodd" d="M0 0c0 4.42 5.37 8 12 8s12-3.58 12-8" fill="black" fill-opacity=".16"/></g><g id="eyes-squint-99f5743f"><path d="M30 12.73c0 4.26-6.27 7.72-14 7.72S2 17 2 12.73 8.27 5 16 5s14 3.46 14 7.73m52 0c0 4.26-6.27 7.72-14 7.72S54 17 54 12.73 60.27 5 68 5s14 3.46 14 7.73" fill="white"/><path d="M18.82 20.3a25 25 0 0 1-5.64 0 6 6 0 1 1 5.64 0m52 0a25 25 0 0 1-5.64 0 6 6 0 1 1 5.64 0" fill="black" fill-opacity=".7"/></g><g id="eyebrows-upDownNatural-99f5743f"><path fill-rule="evenodd" clip-rule="evenodd" d="m14.9 1.58.91-.4C21.06-.9 29-.03 33.86 2.3c.57.27.18 1.15-.4 1.1C18.54 2.27 8.5 11.56 5.08 17.86c-.1.18-.4.2-.48.03C2.3 12.56 9.05 3.9 14.9 1.58m64.23 10.49c5.76.77 14.75 5.8 14 11.6-.03.2-.32.26-.44.1-2.49-3.2-21.7-7.87-28.72-6.9-.64.1-1.06-.57-.62-.98 3.74-3.54 10.62-4.52 15.78-3.82" fill="black" fill-opacity=".6"/></g><g id="top-bigHair-99f5743f"><path d="M43.83 105.6q-.59-2.4-1.13-4.92c-1.95-9.23-2.95-20.22 2.89-39.67-6.9 22.99-4.25 34.15-1.76 44.58 1.23 5.2 2.43 10.2 2.37 16.4v-.02c.06-6.2-1.14-11.21-2.37-16.4m173.55 8.64c-.13.4-.16.8-.18 1.23zm-.33 2.58q-.18 1.63-.23 3.35c-29.04-10.76-54.94-29.62-70.32-51.55-12.1 15.62-31.96 23.04-51.63 30.4-17.38 6.5-34.62 12.95-46.2 24.95l1.1-1.5c11-14.6 28.75-21.88 46.7-29.24 18.81-7.71 37.81-15.5 49.38-31.9 15.4 24.12 41.82 44.67 71.16 55.65z" fill="black" fill-opacity=".16"/><path d="M31 280h1v-9a72 72 0 0 1 72-72h4v-18.39a56 56 0 0 1-31.8-45.74A12 12 0 0 1 66 123v-13q0-1.2.22-2.32c9.12-5.82 19.65-10.13 30.24-14.48 18.81-7.71 37.82-15.5 49.39-31.9 11.95 18.7 30.55 35.3 52.02 46.9q.13.89.13 1.8v13a12 12 0 0 1-10.2 11.87A56 56 0 0 1 156 180.6V199h4a72 72 0 0 1 72 72v9c24.41-13.94 15.86-33.21 6.28-48.46a303 303 0 0 0-4.07-6.27c-3.48-5.25-6.45-9.74-7.2-12.97q-.16-.7-.18-1.3c-.14-4.62 3.14-7.84 7.16-11.78 6.22-6.08 14.18-13.9 14.01-31.22-.51-15.83-9.8-22.25-18.1-28-6.93-4.78-13.17-9.1-13.1-18q0-2.72.25-5.2c.11-.4.13-.82.15-1.24v-.1c.45-3.44 1.2-6.62 1.98-9.87 2.55-10.72 5.3-22.23-2.38-46.6-2.9-9.11-6.97-16.5-12.1-22.45-14.12-16.42-36.35-22.04-64.9-23.3q-3.82-.16-7.8-.22V13h-1c-43.08.77-73.16 9.54-84.8 46-7.67 24.36-4.93 35.87-2.37 46.6 1.23 5.19 2.43 10.2 2.37 16.4.03 3.75-1.06 6.7-2.85 9.2-2.46 3.43-6.23 6.04-10.24 8.8-8.3 5.75-17.6 12.17-18.1 28-.15 17.33 7.8 25.14 14.03 31.22 4.03 3.94 7.32 7.16 7.17 11.78-.08 3.26-3.4 8.27-7.38 14.27-10.54 15.9-25.7 38.8 2.2 54.73" fill="#4a312c"/><path fill-rule="evenodd" clip-rule="evenodd" d="M49.58 122.45c22.54-29.92 73.49-29.13 96.09-61.15 15.4 24.1 41.82 44.65 71.16 55.63.3-.86.08-1.85.37-2.7 2.15-14.14 9.14-24.37-.58-55.23-11.63-36.46-41.71-45.23-84.8-45.98l-1-.02c-43.08.77-73.16 9.54-84.8 46-11.38 36.16.17 44 0 63a15 15 0 0 1-2.85 9.2c.19.4 4.16-5.76 6.4-8.75" fill="white" fill-opacity=".2"/></g><clipPath id="clip-99f5743f"><rect width="280" height="280" rx="0" ry="0"/></clipPath></defs><g clip-path="url(#clip-99f5743f)"><path d="M140 36a56 56 0 0 0-56 56v6.17A12 12 0 0 0 74 110v14a12 12 0 0 0 10.3 11.88A56 56 0 0 0 116 180.6V199h-4a72 72 0 0 0-72 72v9h200v-9a72 72 0 0 0-72-72h-4v-18.38a56 56 0 0 0 31.7-44.73A12 12 0 0 0 206 124v-14a12 12 0 0 0-10-11.83V92a56 56 0 0 0-56-56" fill="#f0c8a0"/><path d="M116 180.61v8a56 56 0 0 0 24 5.39 56 56 0 0 0 24-5.39v-8a56 56 0 0 1-24 5.39 56 56 0 0 1-24-5.39" fill="black" fill-opacity=".1"/><use transform="translate(40 184.7)" href="#clothes-shirtVNeck-99f5743f"/><use transform="translate(94 140)" href="#mouth-concerned-99f5743f"/><use transform="translate(128 130)" href="#nose-default-99f5743f"/><use transform="translate(98 98)" href="#eyes-squint-99f5743f"/><use transform="translate(91.86 82)" href="#eyebrows-upDownNatural-99f5743f"/><use transform="translate(8)" href="#top-bigHair-99f5743f"/></g></svg>